<svg width="3674" height="3243" viewBox="0 0 3674 3243" fill="none" xmlns="http://www.w3.org/2000/svg">
<path d="M2864 1979.13C2864 2242.06 2198.59 3137.63 1484.5 3137.63C770.41 3137.63 87 2242.06 87 1979.13C779.5 1979.13 770.41 1979.13 1484.5 1979.13C2198.59 1979.13 2191.5 1979.13 2864 1979.13Z" fill="#AD9EC6"/>
<path d="M3670 559H3672.25" stroke="white" stroke-width="2" stroke-linecap="round"/>
<rect x="799" y="2941.63" width="1354" height="301" rx="75" fill="#AD9EC6"/>
<rect y="1978" width="2941" height="229" rx="75" fill="#898196"/>
<rect x="2013" y="2273" width="527" height="141" rx="70.5" fill="#F0F0F0"/>
<rect x="1766" y="2273" width="196" height="141" rx="70.5" fill="#F0F0F0"/>
<rect width="2143.17" height="112.043" rx="56.0213" transform="matrix(0.493628 -0.869673 0.902617 0.430444 1309.46 1863.86)" fill="#4E4163"/>
<rect width="2143.17" height="112.043" rx="56.0213" transform="matrix(0.493628 -0.869673 0.902617 0.430444 1499 1930.77)" fill="#4E4163"/>
<path d="M2078.5 1438.88C1491.25 1438.88 1788.72 1438.88 1431.25 1438.88C1073.78 1438.88 1267.75 1438.88 784 1438.88C784 1081.41 1073.78 791.631 1431.25 791.631C1788.72 791.631 2078.5 1081.41 2078.5 1438.88Z" fill="#FFF1C2"/>
<path d="M1916.88 1438.32C1476.44 1438.32 1699.54 1438.32 1431.44 1438.32C1163.34 1438.32 1306 1438.32 946 1438.32C946 1170.22 1163.34 952.881 1431.44 952.881C1699.54 952.881 1916.88 1170.22 1916.88 1438.32Z" fill="#F3E7BF"/>
<path d="M1705.38 1438.51C1468.06 1438.51 1588.27 1438.51 1443.81 1438.51C1299.36 1438.51 1378 1438.51 1182.25 1438.51C1182.25 1294.15 1299.36 1177.13 1443.81 1177.13C1588.27 1177.13 1705.38 1294.15 1705.38 1438.51Z" fill="#DCD2AE"/>
<path d="M2864 1978.63C2081 1978.63 2477.62 1978.63 2001 1978.63C1524.38 1978.63 1783 1978.63 1138 1978.63C1138 1502.01 1524.38 1115.63 2001 1115.63C2477.62 1115.63 2864 1502.01 2864 1978.63Z" fill="#FFF1C2"/>
<path d="M2648.5 1977.88C2061.25 1977.88 2358.72 1977.88 2001.25 1977.88C1643.78 1977.88 1834 1977.88 1354 1977.88C1354 1620.41 1643.78 1330.63 2001.25 1330.63C2358.72 1330.63 2648.5 1620.41 2648.5 1977.88Z" fill="#F3E7BF"/>
<path d="M2366.5 1978.13C2050.08 1978.13 2210.36 1978.13 2017.75 1978.13C1825.14 1978.13 1930 1978.13 1669 1978.13C1669 1785.66 1825.14 1629.63 2017.75 1629.63C2210.36 1629.63 2366.5 1785.66 2366.5 1978.13Z" fill="#DCD2AE"/>
<path d="M1813 1978.63C1030 1978.63 1426.62 1978.63 950 1978.63C473.378 1978.63 732 1978.63 87 1978.63C87 1502.01 473.378 1115.63 950 1115.63C1426.62 1115.63 1813 1502.01 1813 1978.63Z" fill="#FFF1C2"/>
<path d="M1597.5 1977.88C1010.25 1977.88 1307.72 1977.88 950.25 1977.88C592.784 1977.88 783 1977.88 303 1977.88C303 1620.41 592.784 1330.63 950.25 1330.63C1307.72 1330.63 1597.5 1620.41 1597.5 1977.88Z" fill="#F3E7BF"/>
<path d="M1315.5 1978.13C999.079 1978.13 1159.36 1978.13 966.75 1978.13C774.141 1978.13 879 1978.13 618 1978.13C618 1785.66 774.141 1629.63 966.75 1629.63C1159.36 1629.63 1315.5 1785.66 1315.5 1978.13Z" fill="#DCD2AE"/>
</svg>
